<?xml version="1.0" encoding="UTF-8" standalone="no"?>
<!-- Created with Inkscape (http://www.inkscape.org/) -->

<svg
   xmlns:dc="http://purl.org/dc/elements/1.1/"
   xmlns:cc="http://creativecommons.org/ns#"
   xmlns:rdf="http://www.w3.org/1999/02/22-rdf-syntax-ns#"
   xmlns:svg="http://www.w3.org/2000/svg"
   xmlns="http://www.w3.org/2000/svg"
   xmlns:sodipodi="http://sodipodi.sourceforge.net/DTD/sodipodi-0.dtd"
   xmlns:inkscape="http://www.inkscape.org/namespaces/inkscape"
   width="744.09448819"
   height="1052.3622047"
   id="svg2"
   version="1.1"
   inkscape:version="0.48.4 r9939"
   sodipodi:docname="logo.svg">
  <defs
     id="defs4" />
  <sodipodi:namedview
     id="base"
     pagecolor="#ffffff"
     bordercolor="#666666"
     borderopacity="1.0"
     inkscape:pageopacity="0.0"
     inkscape:pageshadow="2"
     inkscape:zoom="0.5"
     inkscape:cx="712.63362"
     inkscape:cy="487.3738"
     inkscape:document-units="px"
     inkscape:current-layer="layer1"
     showgrid="false"
     inkscape:window-width="1366"
     inkscape:window-height="716"
     inkscape:window-x="0"
     inkscape:window-y="0"
     inkscape:window-maximized="1" />
  <metadata
     id="metadata7">
    <rdf:RDF>
      <cc:Work
         rdf:about="">
        <dc:format>image/svg+xml</dc:format>
        <dc:type
           rdf:resource="http://purl.org/dc/dcmitype/StillImage" />
        <dc:title />
      </cc:Work>
    </rdf:RDF>
  </metadata>
  <g
     inkscape:label="Layer 1"
     inkscape:groupmode="layer"
     id="layer1">
    <g
       id="g4006"
       transform="matrix(1.4819571,0.01841442,-0.01841442,1.4819571,-169.24414,-239.13489)">
      <path
         sodipodi:nodetypes="cscsc"
         inkscape:connector-curvature="0"
         id="path3029"
         d="m 262.93851,342.42851 c 0,0 17.52241,-36.22833 56.51018,-35.88649 42.75774,0.37489 59.15129,38.15515 59.15129,38.15515 0,0 -13.59847,35.9999 -54.8425,37.53182 -52.34641,1.94431 -60.81897,-39.80048 -60.81897,-39.80048 z"
         style="fill:#000000;stroke:none" />
      <path
         style="fill:#ffffff;stroke:none"
         d="m 279.50523,344.94038 c 0,0 8.7915,-23.48669 39.25641,-24.10698 33.4107,-0.68027 42.86494,23.10212 42.86494,23.10212 0,0 -13.30518,25.64416 -38.40897,25.13529 -37.5398,-0.76096 -43.71238,-24.13043 -43.71238,-24.13043 z"
         id="path3031"
         inkscape:connector-curvature="0"
         sodipodi:nodetypes="cscsc" />
      <path
         sodipodi:nodetypes="csssccc"
         inkscape:connector-curvature="0"
         id="path3033"
         d="m 312.17914,327.1746 c 0,0 -14.76654,3.65429 -14.14662,14.88295 0.56829,10.29339 9.7404,18.49823 23.04426,19.26649 13.37466,0.77234 19.44593,-6.0495 19.06532,-20.23548 -0.4152,-15.47519 -14.42733,-15.53232 -14.42733,-15.53232 l -3.62964,21.22892 z"
         style="fill:#000000;stroke:none" />
    </g>
    <path
       style="fill:#000000;stroke:none"
       d="m 277.30438,340.19486 c -11.99481,-1.3058 -30.5512,9.75539 -0.44149,22.80725 16.67994,7.23039 22.7795,5.74892 23.77001,-5.16708 0.90933,-10.02119 -11.33369,-16.33435 -23.32852,-17.64017 z"
       id="path3035"
       inkscape:connector-curvature="0"
       sodipodi:nodetypes="zssz"
       inkscape:transform-center-x="5.6048234"
       inkscape:transform-center-y="-13.500719" />
    <path
       sodipodi:nodetypes="zssz"
       inkscape:connector-curvature="0"
       id="path3037"
       d="m 341.77841,359.16718 c 9.1538,-7.40712 10.5216,-23.97194 -11.331,-18.74713 -12.16241,2.90792 -21.27762,16.62091 -14.74323,23.02346 8.25027,8.08374 16.92039,3.13076 26.07423,-4.27633 z"
       style="fill:#000000;stroke:none" />
    <path
       sodipodi:nodetypes="sssss"
       inkscape:connector-curvature="0"
       id="path2987"
       d="m 144.86816,361.24231 c -27.94603,54.09822 63.60505,109.66091 156.35331,111.70387 84.60521,1.8636 195.44064,-73.04594 148.93307,-132.21017 -38.77647,-49.32916 -43.29045,30.38267 -142.42666,41.85467 -53.46554,6.18703 -129.74863,-85.44516 -162.85972,-21.34837 z"
       style="fill:#000000;stroke:none" />
    <path
       style="fill:#ffffff;stroke:none"
       d="m 168.56347,371.78154 c -20.41552,37.39205 67.24609,73.8547 139.61373,75.34058 50.86506,1.04439 143.50774,-45.41844 125.72238,-85.83181 -15.19477,-34.5268 -28.39011,39.17187 -131.60668,45.54094 -56.41215,-0.37012 -113.31391,-72.44176 -133.72943,-35.04971 z"
       id="path2985"
       inkscape:connector-curvature="0"
       sodipodi:nodetypes="zsscz" />
    <path
       style="fill:#000000;stroke:none"
       d="m 314.82028,394.02302 28.7298,35.07491 3.36293,-42.03872 z"
       id="path3041"
       inkscape:connector-curvature="0"
       sodipodi:nodetypes="cccc" />
    <path
       style="fill:#000000;stroke:none"
       d="m 367.49365,439.30531 -2.52435,-34.786 27.46641,22.68804 z"
       id="path3043"
       inkscape:connector-curvature="0"
       sodipodi:nodetypes="cccc" />
    <path
       style="fill:#000000;stroke:none"
       d="m 369.83933,379.32032 29.61497,24.89448 -4.53906,-43.79429 z"
       id="path3045"
       inkscape:connector-curvature="0"
       sodipodi:nodetypes="cccc" />
    <path
       style="fill:#000000;stroke:none"
       d="M 330.63125,453.94605 309.35612,418.10221 295.8211,453.31276 z"
       id="path3047"
       inkscape:connector-curvature="0"
       sodipodi:nodetypes="cccc" />
    <path
       style="fill:#000000;stroke:none"
       d="m 298.21521,402.66388 -23.31941,31.22845 -7.80351,-44.07622 z"
       id="path3049"
       inkscape:connector-curvature="0"
       sodipodi:nodetypes="cccc" />
    <path
       style="fill:#000000;stroke:none"
       d="M 252.94673,450.46855 254.6213,406.38892 222.0984,436.447 z"
       id="path3051"
       inkscape:connector-curvature="0"
       sodipodi:nodetypes="cccc" />
    <path
       style="fill:#000000;stroke:none"
       d="m 242.03314,379.43871 -28.55761,32.49414 0.54571,-53.32853 z"
       id="path3053"
       inkscape:connector-curvature="0"
       sodipodi:nodetypes="cccc" />
    <path
       style="fill:#000000;stroke:none"
       d="m 192.57239,424.91264 8.99842,-42.69524 -36.27562,25.65254 z"
       id="path3055"
       inkscape:connector-curvature="0"
       sodipodi:nodetypes="cccc" />
    <path
       style="fill:#000000;stroke:none"
       d="m 422.50451,412.07759 -14.11939,-43.74495 36.74962,20.63353 z"
       id="path3057"
       inkscape:connector-curvature="0" />
    <path
       style="fill:#000000;stroke:none"
       d="m 223.62166,355.67547 c 0,0 -36.21287,-30.3675 -37.11956,-66.88484 -0.90668,-36.51733 32.59042,-86.86211 101.3053,-90.3798 68.71488,-3.51773 116.00758,40.5805 122.82685,83.16815 6.81926,42.58759 -28.49914,77.37992 -28.49914,77.37992 l 40.02369,-20.99388 c 0,0 19.55835,-21.51766 11.68093,-63.38061 -7.87743,-41.86298 -66.27511,-110.07759 -149.76931,-105.55949 -83.4942,4.5181 -126.45284,81.25829 -124.15035,117.50308 2.30248,36.2448 30.52822,68.25148 30.52822,68.25148 z"
       id="path3059"
       inkscape:connector-curvature="0"
       sodipodi:nodetypes="czzzcczzzcc" />
    <path
       inkscape:connector-curvature="0"
       id="path3079"
       d="m 194.10829,225.9779 0.29003,-92.08506 68.16213,55.69815 z"
       style="fill:#000000;stroke:none"
       sodipodi:nodetypes="cccc" />
    <path
       sodipodi:nodetypes="cccc"
       inkscape:connector-curvature="0"
       id="path3081"
       d="m 400.81263,230.76626 8.15287,-92.80521 -64.07224,52.5992 z"
       style="fill:#000000;stroke:none" />
    <path
       style="fill:#ffffff;stroke:none"
       d="m 221.73127,227.36438 -3.77115,-41.40174 24.91927,26.84235 z"
       id="path3087"
       inkscape:connector-curvature="0"
       sodipodi:nodetypes="cccc" />
    <path
       style="fill:#ffffff;stroke:none"
       d="m 350.71319,221.82871 32.33595,-30.17133 -7.68503,44.79875 c 7.23307,-1.53415 -16.96488,-7.61627 -24.65092,-14.62742 z"
       id="path3857"
       inkscape:connector-curvature="0"
       sodipodi:nodetypes="cccc" />
    <path
       style="fill:#000000;stroke:#000000;stroke-width:0.68336421px;stroke-linecap:butt;stroke-linejoin:miter;stroke-opacity:1"
       d="m 340.16202,480.74909 c 0,0 93.3521,297.18229 129.63587,289.91435 21.642,-4.33507 53.56512,-77.95205 53.56512,-77.95205 10.01949,6.48025 18.67039,9.27676 28.57857,23.38717 0,0 -44.98721,106.54438 -91.8693,96.65397 -48.55237,-10.24279 -110.48204,-195.40119 -110.48204,-195.40119 0,0 -45.62455,185.05111 -63.54728,199.13065 -15.25226,-7.00142 -22.80035,-29.90918 -22.78853,-44.28254 14.87488,-16.08726 63.42541,-206.0576 63.42541,-206.0576 0,0 -16.47749,-54.85877 -25.11804,-82.51127 11.91598,1.74062 38.60022,-2.88149 38.60022,-2.88149 z"
       id="path3054"
       inkscape:connector-curvature="0"
       sodipodi:nodetypes="csccscccccc" />
    <path
       style="fill:#000000;stroke:#000000;stroke-width:1.1443783px;stroke-linecap:butt;stroke-linejoin:miter;stroke-opacity:1"
       d="m 498.64578,662.17016 c 29.82691,16.19515 64.90899,39.44495 89.00782,67.12471 1.79269,-44.49288 2.60131,-88.73976 9.08366,-134.40507 -31.50665,30.76037 -64.4682,42.10681 -98.09148,67.28036 z"
       id="path3056"
       inkscape:connector-curvature="0"
       sodipodi:nodetypes="cccc" />
    <path
       inkscape:connector-curvature="0"
       id="path3058"
       d="m 538.90972,661.12295 c 11.65932,8.4598 22.9565,15.1995 30.51143,22.81386 2.69806,-14.02258 2.02595,-29.47819 3.76014,-44.67089 -12.31027,9.73928 -22.69634,15.17687 -34.27157,21.85703 z"
       style="fill:#ffffff;stroke:#000000;stroke-width:1.03894198px;stroke-linecap:butt;stroke-linejoin:miter;stroke-opacity:1"
       sodipodi:nodetypes="cccc" />
    <path
       sodipodi:nodetypes="cccc"
       style="fill:#000000;stroke:#000000;stroke-width:2.05641723px;stroke-linecap:butt;stroke-linejoin:miter;stroke-opacity:1"
       d="m 275.01563,834.51141 c -15.03291,-15.58103 -24.15124,-43.32952 -30.73068,-70.7884 -14.52148,22.54086 -32.78395,44.86424 -52.56445,63.12257 20.69167,2.32029 52.85067,3.4768 83.29513,7.66583 z"
       id="path3060"
       inkscape:connector-curvature="0"
       inkscape:transform-center-x="0.74141123"
       inkscape:transform-center-y="-40.758635" />
    <g
       transform="matrix(0.83338268,-0.0090052,0.0090052,0.83338268,1432.8403,39.597956)"
       id="g3851">
      <path
         style="fill:#000000;stroke:none"
         d="m 84.198351,132.2209 c 0,0 21.654179,-41.981325 70.933939,-41.981325 54.04492,0 75.27685,43.428955 75.27685,43.428955 0,0 -16.68917,43.38044 -68.8039,43.86299 C 99.689791,178.10481 84.198351,132.2209 84.198351,132.2209 z"
         id="path3853"
         inkscape:connector-curvature="0"
         sodipodi:nodetypes="cscsc" />
      <path
         sodipodi:nodetypes="cscsc"
         inkscape:connector-curvature="0"
         id="path3855"
         d="m 100.16985,132.0413 c 0,0 17.36161,-30.17993 55.87511,-30.17993 42.2376,0 58.39267,31.3113 58.39267,31.3113 0,0 -10.79666,32.56117 -51.52577,32.93829 -48.38864,0.44805 -62.74201,-34.06966 -62.74201,-34.06966 z"
         style="fill:#ffffff;stroke:none" />
      <path
         style="fill:#000000;stroke:none"
         d="m 148.87018,115.69345 c 0,0 -16.28747,4.20044 -15.48039,16.60901 0.73986,11.37505 10.97016,20.34761 25.68827,21.05291 14.79647,0.70907 21.43545,-6.89946 20.86093,-22.58049 -0.62674,-17.1061 -16.12029,-17.01746 -16.12029,-17.01746 l -3.78322,23.5117 z"
         id="path3858"
         inkscape:connector-curvature="0"
         sodipodi:nodetypes="csssccc" />
    </g>
    <path
       inkscape:transform-center-y="-10.303332"
       inkscape:transform-center-x="3.5960024"
       sodipodi:nodetypes="zssz"
       inkscape:connector-curvature="0"
       id="path3860"
       d="m 1546.9411,191.45979 c -8.7566,-1.30004 -22.6899,6.19254 -0.998,16.55684 12.0167,5.74156 16.533,4.84392 17.582,-3.05771 0.963,-7.25389 -7.8275,-12.19911 -16.584,-13.49913 z"
       style="fill:#000000;stroke:none" />
    <path
       style="fill:#000000;stroke:none"
       d="m 1596.1437,204.8951 c 7.4269,-4.99239 9.0264,-16.70336 -8.3091,-13.62217 -9.6484,1.71487 -17.2448,11.18137 -12.3134,15.90985 6.2263,5.97009 13.1955,2.70469 20.6225,-2.28768 z"
       id="path3862"
       inkscape:connector-curvature="0"
       sodipodi:nodetypes="zssz" />
    <g
       transform="matrix(0.83328255,0.01575217,-0.01575217,0.83328255,1437.8531,34.915166)"
       id="g3864">
      <path
         sodipodi:nodetypes="zzzcz"
         inkscape:connector-curvature="0"
         id="path3866"
         d="m 38.2632,205.61729 c -29.1313636,43.62036 52.528169,81.71244 116.3021,84.23817 63.77393,2.52572 165.63354,-64.99836 115.97031,-95.59059 -49.66324,-30.59222 -31.87436,23.10122 -112.57262,29.27715 -50.76886,0.44745 -90.568425,-61.5451 -119.69979,-17.92473 z"
         style="fill:#000000;stroke:none" />
      <path
         style="fill:#ffffff;stroke:none"
         d="m 49.51123,210.93661 c -22.221141,28.8737 51.30535,65.69577 105.37216,66.51126 54.06681,0.81548 142.38359,-48.10135 109.08167,-74.49075 -33.30192,-26.38941 -32.07162,30.75306 -107.75443,35.17157 -47.61356,0.32012 -84.478263,-56.06576 -106.6994,-27.19208 z"
         id="path3868"
         inkscape:connector-curvature="0"
         sodipodi:nodetypes="zzzcz" />
      <path
         style="fill:#000000;stroke:none"
         d="m 171.41438,232.07434 20.74456,26.18672 2.11485,-31.73573 z"
         id="path3870"
         inkscape:connector-curvature="0"
         sodipodi:nodetypes="cccc" />
      <path
         style="fill:#000000;stroke:none"
         d="m 212.49775,269.10649 -2.25219,-26.20735 20.94012,16.83421 z"
         id="path3872"
         inkscape:connector-curvature="0"
         sodipodi:nodetypes="cccc" />
      <path
         style="fill:#000000;stroke:none"
         d="m 209.83496,219.08488 22.58249,18.47658 -3.8617,-32.98043 z"
         id="path3874"
         inkscape:connector-curvature="0"
         sodipodi:nodetypes="cccc" />
      <path
         style="fill:#000000;stroke:none"
         d="m 183.32519,279.15992 -16.40299,-26.8172 -9.85417,26.68839 z"
         id="path3876"
         inkscape:connector-curvature="0"
         sodipodi:nodetypes="cccc" />
      <path
         style="fill:#000000;stroke:none"
         d="m 154.88626,234.00703 -13.96008,25.86721 -10.67536,-32.02606 z"
         id="path3878"
         inkscape:connector-curvature="0"
         sodipodi:nodetypes="cccc" />
      <path
         style="fill:#000000;stroke:none"
         d="m 120.3262,276.56757 0.82119,-33.25784 -24.224853,22.99307 z"
         id="path3880"
         inkscape:connector-curvature="0"
         sodipodi:nodetypes="cccc" />
      <path
         style="fill:#000000;stroke:none"
         d="M 110.37676,219.26854 89.166605,244.05895 89.043823,203.83769 z"
         id="path3882"
         inkscape:connector-curvature="0"
         sodipodi:nodetypes="cccc" />
      <path
         style="fill:#000000;stroke:none"
         d="m 72.786919,255.21167 6.358119,-32.28723 -27.09899,19.70836 z"
         id="path3884"
         inkscape:connector-curvature="0"
         sodipodi:nodetypes="cccc" />
      <path
         style="fill:#000000;stroke:none"
         d="m 253.76816,247.00505 -11.08594,-32.84725 27.92016,15.19185 z"
         id="path3886"
         inkscape:connector-curvature="0" />
    </g>
    <path
       sodipodi:nodetypes="czzzcczzzcc"
       inkscape:connector-curvature="0"
       id="path3888"
       d="m 1512.7914,204.22842 c 0,0 -27.2068,-26.61479 -26.8654,-49.68842 0.3414,-23.07363 27.8415,-56.975864 72.4844,-57.399984 44.6428,-0.42411 82.6842,28.647234 86.0219,57.207014 3.3377,28.5598 -16.7567,46.35277 -16.7567,46.35277 l 12.7445,0.93597 c 0,0 17.2784,-21.96708 13.2362,-48.59713 -4.0422,-26.63006 -41.5715,-68.672854 -95.8747,-66.706854 -54.3032,1.966 -82.6038,44.147064 -82.0333,67.085154 0.5705,22.93809 18.057,43.87873 18.057,43.87873 z"
       style="fill:#000000;stroke:none" />
    <path
       sodipodi:nodetypes="cccc"
       style="fill:#000000;stroke:none"
       d="m 1505.9624,107.87209 -0.2315,-46.093794 29.4361,32.72144 z"
       id="path3890"
       inkscape:connector-curvature="0" />
    <path
       style="fill:#000000;stroke:none"
       d="m 1630.6293,116.05144 7.6456,-46.611964 -37.5371,28.40173 z"
       id="path3892"
       inkscape:connector-curvature="0"
       sodipodi:nodetypes="cccc" />
    <path
       sodipodi:nodetypes="cccc"
       inkscape:connector-curvature="0"
       id="path3894"
       d="m 1517.0418,119.29246 -3.8042,-37.984894 20.9163,25.822214 z"
       style="fill:#ffffff;stroke:none" />
    <path
       sodipodi:nodetypes="cccc"
       inkscape:connector-curvature="0"
       id="path3896"
       d="m 1601.096,110.59134 23.9698,-19.172274 -8.2841,31.983534 c 4.6322,-1.25034 -10.4571,-8.54084 -15.6857,-12.81126 z"
       style="fill:#ffffff;stroke:none" />
    <path
       sodipodi:nodetypes="csccscccccc"
       inkscape:connector-curvature="0"
       id="path4011"
       d="m 1589.3875,295.10844 c 0,0 87.3016,303.70908 124.161,300.43516 32.8847,-2.92086 59.2722,-74.65916 59.2722,-74.65916 l 17.0933,14.85164 c 0,0 -39.8659,97.30174 -83.2124,86.70422 -48.2014,-11.78445 -104.5324,-205.93672 -104.5324,-205.93672 0,0 -44.1245,198.05111 -62.0472,212.13065 -6.4316,-12.51437 -10.2232,-20.4326 -16.3744,-30.95411 14.8749,-16.08726 61.9255,-216.26471 61.9255,-216.26471 0,0 -12.8207,-53.11613 -21.4612,-80.76863 11.916,-1.08781 25.1756,-5.53834 25.1756,-5.53834 z"
       style="fill:#000000;stroke:#000000;stroke-width:0.68336421px;stroke-linecap:butt;stroke-linejoin:miter;stroke-opacity:1" />
  </g>
</svg>
