<?xml version="1.0" encoding="UTF-8" standalone="no"?>
<!-- Created with Inkscape (http://www.inkscape.org/) -->

<svg
   xmlns:dc="http://purl.org/dc/elements/1.1/"
   xmlns:cc="http://creativecommons.org/ns#"
   xmlns:rdf="http://www.w3.org/1999/02/22-rdf-syntax-ns#"
   xmlns:svg="http://www.w3.org/2000/svg"
   xmlns="http://www.w3.org/2000/svg"
   xmlns:sodipodi="http://sodipodi.sourceforge.net/DTD/sodipodi-0.dtd"
   xmlns:inkscape="http://www.inkscape.org/namespaces/inkscape"
   width="744.09448819"
   height="1052.3622047"
   id="svg2"
   version="1.1"
   inkscape:version="0.48.4 r9939"
   sodipodi:docname="logo-2.svg">
  <defs
     id="defs4" />
  <sodipodi:namedview
     id="base"
     pagecolor="#ffffff"
     bordercolor="#666666"
     borderopacity="1.0"
     inkscape:pageopacity="0.0"
     inkscape:pageshadow="2"
     inkscape:zoom="0.35355339"
     inkscape:cx="78.071705"
     inkscape:cy="542.04274"
     inkscape:document-units="px"
     inkscape:current-layer="layer1"
     showgrid="false"
     inkscape:window-width="1366"
     inkscape:window-height="716"
     inkscape:window-x="0"
     inkscape:window-y="0"
     inkscape:window-maximized="1" />
  <metadata
     id="metadata7">
    <rdf:RDF>
      <cc:Work
         rdf:about="">
        <dc:format>image/svg+xml</dc:format>
        <dc:type
           rdf:resource="http://purl.org/dc/dcmitype/StillImage" />
        <dc:title></dc:title>
      </cc:Work>
    </rdf:RDF>
  </metadata>
  <g
     inkscape:label="Layer 1"
     inkscape:groupmode="layer"
     id="layer1">
    <g
       transform="matrix(1.4819571,0.01841442,-0.01841442,1.4819571,-1147.8799,-389.04153)"
       id="g3845">
      <path
         style="fill:#000000;stroke:none"
         d="m 262.93851,342.42851 c 0,0 17.52241,-36.22833 56.51018,-35.88649 42.75774,0.37489 59.15129,38.15515 59.15129,38.15515 0,0 -13.59847,35.9999 -54.8425,37.53182 -52.34641,1.94431 -60.81897,-39.80048 -60.81897,-39.80048 z"
         id="path3847"
         inkscape:connector-curvature="0"
         sodipodi:nodetypes="cscsc" />
      <path
         sodipodi:nodetypes="cscsc"
         inkscape:connector-curvature="0"
         id="path3849"
         d="m 279.50523,344.94038 c 0,0 8.7915,-23.48669 39.25641,-24.10698 33.4107,-0.68027 42.86494,23.10212 42.86494,23.10212 0,0 -13.30518,25.64416 -38.40897,25.13529 -37.5398,-0.76096 -43.71238,-24.13043 -43.71238,-24.13043 z"
         style="fill:#ffffff;stroke:none" />
      <path
         style="fill:#000000;stroke:none"
         d="m 312.17914,327.1746 c 0,0 -14.76654,3.65429 -14.14662,14.88295 0.56829,10.29339 9.7404,18.49823 23.04426,19.26649 13.37466,0.77234 19.44593,-6.0495 19.06532,-20.23548 -0.4152,-15.47519 -14.42733,-15.53232 -14.42733,-15.53232 l -3.62964,21.22892 z"
         id="path3851"
         inkscape:connector-curvature="0"
         sodipodi:nodetypes="csssccc" />
    </g>
    <path
       inkscape:transform-center-y="-13.500719"
       inkscape:transform-center-x="5.6048234"
       sodipodi:nodetypes="zssz"
       inkscape:connector-curvature="0"
       id="path3854"
       d="m -701.33141,190.28822 c -11.99481,-1.3058 -30.5512,9.75539 -0.44149,22.80725 16.67994,7.23039 22.7795,5.74892 23.77001,-5.16708 0.90933,-10.02119 -11.33369,-16.33435 -23.32852,-17.64017 z"
       style="fill:#000000;stroke:none" />
    <path
       style="fill:#000000;stroke:none"
       d="m -636.85738,209.26054 c 9.1538,-7.40712 10.5216,-23.97194 -11.331,-18.74713 -12.16241,2.90792 -21.27762,16.62091 -14.74323,23.02346 8.25027,8.08374 16.92039,3.13076 26.07423,-4.27633 z"
       id="path3856"
       inkscape:connector-curvature="0"
       sodipodi:nodetypes="zssz" />
    <path
       style="fill:#000000;stroke:none"
       d="m -833.76763,211.33567 c -27.94603,54.09822 63.60505,109.66091 156.35331,111.70387 84.60521,1.8636 195.44064,-73.04594 148.93307,-132.21017 -38.77647,-49.32916 -43.29045,30.38267 -142.42666,41.85467 -53.46554,6.18703 -129.74863,-85.44516 -162.85972,-21.34837 z"
       id="path3859"
       inkscape:connector-curvature="0"
       sodipodi:nodetypes="sssss" />
    <path
       sodipodi:nodetypes="zsscz"
       inkscape:connector-curvature="0"
       id="path3861"
       d="m -810.07232,221.8749 c -20.41552,37.39205 67.24609,73.8547 139.61373,75.34058 50.86506,1.04439 143.50774,-45.41844 125.72238,-85.83181 -15.19477,-34.5268 -28.39011,39.17187 -131.60668,45.54094 -56.41215,-0.37012 -113.31391,-72.44176 -133.72943,-35.04971 z"
       style="fill:#ffffff;stroke:none" />
    <path
       sodipodi:nodetypes="cccc"
       inkscape:connector-curvature="0"
       id="path3863"
       d="m -663.81551,244.11638 28.7298,35.07491 3.36293,-42.03872 z"
       style="fill:#000000;stroke:none" />
    <path
       sodipodi:nodetypes="cccc"
       inkscape:connector-curvature="0"
       id="path3865"
       d="m -611.14214,289.39867 -2.52435,-34.786 27.46641,22.68804 z"
       style="fill:#000000;stroke:none" />
    <path
       sodipodi:nodetypes="cccc"
       inkscape:connector-curvature="0"
       id="path3867"
       d="m -608.79646,229.41368 29.61497,24.89448 -4.53906,-43.79429 z"
       style="fill:#000000;stroke:none" />
    <path
       sodipodi:nodetypes="cccc"
       inkscape:connector-curvature="0"
       id="path3869"
       d="m -648.00454,304.03941 -21.27513,-35.84384 -13.53502,35.21055 z"
       style="fill:#000000;stroke:none" />
    <path
       sodipodi:nodetypes="cccc"
       inkscape:connector-curvature="0"
       id="path3871"
       d="m -680.42058,252.75724 -23.31941,31.22845 -7.80351,-44.07622 z"
       style="fill:#000000;stroke:none" />
    <path
       sodipodi:nodetypes="cccc"
       inkscape:connector-curvature="0"
       id="path3873"
       d="m -725.68906,300.56191 1.67457,-44.07963 -32.5229,30.05808 z"
       style="fill:#000000;stroke:none" />
    <path
       sodipodi:nodetypes="cccc"
       inkscape:connector-curvature="0"
       id="path3875"
       d="m -736.60265,229.53207 -28.55761,32.49414 0.54571,-53.32853 z"
       style="fill:#000000;stroke:none" />
    <path
       sodipodi:nodetypes="cccc"
       inkscape:connector-curvature="0"
       id="path3877"
       d="m -786.0634,275.006 8.99842,-42.69524 -36.27562,25.65254 z"
       style="fill:#000000;stroke:none" />
    <path
       inkscape:connector-curvature="0"
       id="path3879"
       d="m -556.13128,262.17095 -14.11939,-43.74495 36.74962,20.63353 z"
       style="fill:#000000;stroke:none" />
    <path
       sodipodi:nodetypes="czzzcczzzcc"
       inkscape:connector-curvature="0"
       id="path3881"
       d="m -755.01413,205.76883 c 0,0 -36.21287,-30.3675 -37.11956,-66.88484 -0.90668,-36.51733 32.59042,-86.862108 101.3053,-90.379798 68.71488,-3.51773 116.00758,40.5805 122.82685,83.168148 6.81926,42.58759 -28.49914,77.37992 -28.49914,77.37992 l 40.02369,-20.99388 c 0,0 19.55835,-21.51766 11.68093,-63.38061 -7.87743,-41.862978 -66.27511,-110.077588 -149.76931,-105.559488 -83.4942,4.5181 -126.45284,81.258288 -124.15035,117.503078 2.30248,36.2448 30.52822,68.25148 30.52822,68.25148 z"
       style="fill:#000000;stroke:none" />
    <path
       sodipodi:nodetypes="cccc"
       style="fill:#000000;stroke:none"
       d="m -784.5275,76.071262 0.29003,-92.08506 68.16213,55.69815 z"
       id="path3883"
       inkscape:connector-curvature="0" />
    <path
       style="fill:#000000;stroke:none"
       d="m -577.82316,80.859622 8.15287,-92.80521 -64.07224,52.5992 z"
       id="path3885"
       inkscape:connector-curvature="0"
       sodipodi:nodetypes="cccc" />
    <path
       sodipodi:nodetypes="cccc"
       inkscape:connector-curvature="0"
       id="path3887"
       d="m -756.90452,77.457742 -3.77115,-41.40174 24.91927,26.84235 z"
       style="fill:#ffffff;stroke:none" />
    <path
       sodipodi:nodetypes="cccc"
       inkscape:connector-curvature="0"
       id="path3889"
       d="m -627.9226,71.922072 32.33595,-30.17133 -7.68503,44.79875 c 7.23307,-1.53415 -16.96488,-7.61627 -24.65092,-14.62742 z"
       style="fill:#ffffff;stroke:none" />
    <path
       sodipodi:nodetypes="csccscccccc"
       inkscape:connector-curvature="0"
       id="path3891"
       d="m -634.47377,330.34245 c 0,0 89.3521,297.68229 125.63587,290.41435 21.642,-4.33507 53.56512,-77.95205 53.56512,-77.95205 10.01949,8.24802 18.49361,15.11039 28.57857,23.38717 0,0 -44.98721,106.54438 -91.8693,96.65397 -48.55237,-10.24279 -110.48204,-195.40119 -110.48204,-195.40119 0,0 -52.98851,160.30847 -64.96149,189.23115 -11.18424,-6.4334 -29.12573,-31.26704 -26.90985,-45.21147 28.18563,-82.51942 56.0007,-139.52376 68.96094,-195.22917 0,0 -16.47749,-54.85877 -25.11804,-82.51127 11.91598,1.74062 42.60022,-3.38149 42.60022,-3.38149 z"
       style="fill:#000000;stroke:#000000;stroke-width:0.68336421px;stroke-linecap:butt;stroke-linejoin:miter;stroke-opacity:1" />
    <path
       sodipodi:nodetypes="cccc"
       inkscape:connector-curvature="0"
       id="path3893"
       d="m -478.03514,512.29277 c 30.72153,16.07445 66.22727,41.0893 91.97264,67.16803 1.1325,-45.47617 2.70826,-90.70782 7.16813,-137.43306 -31.40547,27.5762 -65.19097,44.02307 -99.14077,70.26503 z"
       style="fill:#000000;stroke:#000000;stroke-width:1.16908336px;stroke-linecap:butt;stroke-linejoin:miter;stroke-opacity:1" />
    <path
       style="fill:#000000;stroke:none"
       d="m -733.57067,627.96753 -36.76899,42.53304 55.88142,-10.13238 c -10.75666,-9.82566 -17.15637,-20.61946 -19.11243,-32.40066 z"
       id="path3895"
       inkscape:connector-curvature="0"
       sodipodi:nodetypes="cccc" />
    <path
       style="fill:#000000;stroke:none"
       d="m -709.2167,665.54391 -16.30712,48.17755 50.01966,-30.7182 c -15.48369,-4.84668 -23.93766,-8.78273 -33.71254,-17.45935 z"
       id="path3897"
       inkscape:connector-curvature="0"
       sodipodi:nodetypes="cccc" />
    <path
       style="fill:#000000;stroke:none"
       d="m -736.7117,621.13466 -49.11771,-14.85184 54.08701,-22.78249 c -2.24371,13.19852 -5.3511,27.35846 -4.9693,37.63433 z"
       id="path3899"
       inkscape:connector-curvature="0"
       sodipodi:nodetypes="cccc" />
    <path
       sodipodi:nodetypes="cccc"
       inkscape:transform-center-y="-24.027285"
       inkscape:transform-center-x="-27.186396"
       inkscape:connector-curvature="0"
       id="path3901"
       d="m -406.76584,529.61378 1.80956,-38.61414 -28.66021,20.18653 z"
       style="fill:#ffffff;stroke:none" />
    <g
       id="g3903"
       transform="matrix(1.4819571,0.01841442,-0.01841442,1.4819571,-953.0431,479.20825)">
      <path
         sodipodi:nodetypes="cscsc"
         inkscape:connector-curvature="0"
         id="path3905"
         d="m 262.93851,342.42851 c 0,0 17.52241,-36.22833 56.51018,-35.88649 42.75774,0.37489 59.15129,38.15515 59.15129,38.15515 0,0 -13.59847,35.9999 -54.8425,37.53182 -52.34641,1.94431 -60.81897,-39.80048 -60.81897,-39.80048 z"
         style="fill:#000000;stroke:none" />
      <path
         style="fill:#ffffff;stroke:none"
         d="m 279.50523,344.94038 c 0,0 8.7915,-23.48669 39.25641,-24.10698 33.4107,-0.68027 42.86494,23.10212 42.86494,23.10212 0,0 -13.30518,25.64416 -38.40897,25.13529 -37.5398,-0.76096 -43.71238,-24.13043 -43.71238,-24.13043 z"
         id="path3907"
         inkscape:connector-curvature="0"
         sodipodi:nodetypes="cscsc" />
      <path
         sodipodi:nodetypes="csssccc"
         inkscape:connector-curvature="0"
         id="path3909"
         d="m 312.17914,327.1746 c 0,0 -14.76654,3.65429 -14.14662,14.88295 0.56829,10.29339 9.7404,18.49823 23.04426,19.26649 13.37466,0.77234 19.44593,-6.0495 19.06532,-20.23548 -0.4152,-15.47519 -14.42733,-15.53232 -14.42733,-15.53232 l -3.62964,21.22892 z"
         style="fill:#000000;stroke:none" />
    </g>
    <path
       style="fill:#000000;stroke:none"
       d="m -506.49461,1058.538 c -11.99481,-1.3058 -30.5512,9.7554 -0.44149,22.8073 16.67994,7.2303 22.7795,5.7489 23.77001,-5.1671 0.90933,-10.0212 -11.33369,-16.3344 -23.32852,-17.6402 z"
       id="path3911"
       inkscape:connector-curvature="0"
       sodipodi:nodetypes="zssz"
       inkscape:transform-center-x="5.6048234"
       inkscape:transform-center-y="-13.500719" />
    <path
       sodipodi:nodetypes="zssz"
       inkscape:connector-curvature="0"
       id="path3913"
       d="m -442.02058,1077.5103 c 9.1538,-7.4071 10.5216,-23.9719 -11.331,-18.7471 -12.16241,2.9079 -21.27762,16.6209 -14.74323,23.0235 8.25027,8.0837 16.92039,3.1307 26.07423,-4.2764 z"
       style="fill:#000000;stroke:none" />
    <path
       sodipodi:nodetypes="sssss"
       inkscape:connector-curvature="0"
       id="path3915"
       d="m -638.93083,1079.5855 c -27.94603,54.0982 63.60505,109.6609 156.35331,111.7038 84.60521,1.8636 195.44064,-73.0459 148.93307,-132.2101 -38.77647,-49.3292 -43.29045,30.3826 -142.42666,41.8546 -53.46554,6.1871 -129.74863,-85.4451 -162.85972,-21.3483 z"
       style="fill:#000000;stroke:none" />
    <path
       style="fill:#ffffff;stroke:none"
       d="m -615.23552,1090.1247 c -20.41552,37.392 67.24609,73.8547 139.61373,75.3406 50.86506,1.0444 143.50774,-45.4185 125.72238,-85.8318 -15.19477,-34.5268 -28.39011,39.1718 -131.60668,45.5409 -56.41215,-0.3701 -113.31391,-72.4418 -133.72943,-35.0497 z"
       id="path3917"
       inkscape:connector-curvature="0"
       sodipodi:nodetypes="zsscz" />
    <path
       style="fill:#000000;stroke:none"
       d="m -468.97871,1112.3662 28.7298,35.0749 3.36293,-42.0387 z"
       id="path3919"
       inkscape:connector-curvature="0"
       sodipodi:nodetypes="cccc" />
    <path
       style="fill:#000000;stroke:none"
       d="m -416.30534,1157.6485 -2.52435,-34.786 27.46641,22.688 z"
       id="path3921"
       inkscape:connector-curvature="0"
       sodipodi:nodetypes="cccc" />
    <path
       style="fill:#000000;stroke:none"
       d="m -413.95966,1097.6635 29.61497,24.8944 -4.53906,-43.7942 z"
       id="path3923"
       inkscape:connector-curvature="0"
       sodipodi:nodetypes="cccc" />
    <path
       style="fill:#000000;stroke:none"
       d="m -453.16774,1172.2892 -21.27513,-35.8438 -13.53502,35.2105 z"
       id="path3925"
       inkscape:connector-curvature="0"
       sodipodi:nodetypes="cccc" />
    <path
       style="fill:#000000;stroke:none"
       d="m -485.58378,1121.007 -23.31941,31.2285 -7.80351,-44.0762 z"
       id="path3927"
       inkscape:connector-curvature="0"
       sodipodi:nodetypes="cccc" />
    <path
       style="fill:#000000;stroke:none"
       d="m -530.85226,1168.8117 1.67457,-44.0796 -32.5229,30.058 z"
       id="path3929"
       inkscape:connector-curvature="0"
       sodipodi:nodetypes="cccc" />
    <path
       style="fill:#000000;stroke:none"
       d="m -541.76585,1097.7819 -28.55761,32.4941 0.54571,-53.3285 z"
       id="path3931"
       inkscape:connector-curvature="0"
       sodipodi:nodetypes="cccc" />
    <path
       style="fill:#000000;stroke:none"
       d="m -591.2266,1143.2558 8.99842,-42.6953 -36.27562,25.6526 z"
       id="path3933"
       inkscape:connector-curvature="0"
       sodipodi:nodetypes="cccc" />
    <path
       style="fill:#000000;stroke:none"
       d="m -361.29448,1130.4207 -14.11939,-43.7449 36.74962,20.6335 z"
       id="path3935"
       inkscape:connector-curvature="0" />
    <path
       style="fill:#000000;stroke:none"
       d="m -560.17733,1074.0186 c 0,0 -36.21287,-30.3675 -37.11956,-66.8848 -0.90668,-36.51736 32.59042,-86.86213 101.3053,-90.37982 68.71488,-3.51773 116.00758,40.5805 122.82685,83.16814 6.81926,42.58758 -28.49914,77.37988 -28.49914,77.37988 l 40.02369,-20.9938 c 0,0 19.55835,-21.5177 11.68093,-63.38065 -7.87743,-41.86297 -66.27511,-110.07758 -149.76931,-105.55948 -83.4942,4.5181 -126.45284,81.25828 -124.15035,117.50303 2.30248,36.2448 30.52822,68.2515 30.52822,68.2515 z"
       id="path3937"
       inkscape:connector-curvature="0"
       sodipodi:nodetypes="czzzcczzzcc" />
    <path
       inkscape:connector-curvature="0"
       id="path3939"
       d="m -589.6907,944.32105 0.29003,-92.08506 68.16213,55.69815 z"
       style="fill:#000000;stroke:none"
       sodipodi:nodetypes="cccc" />
    <path
       sodipodi:nodetypes="cccc"
       inkscape:connector-curvature="0"
       id="path3941"
       d="m -382.98636,949.10941 8.15287,-92.80521 -64.07224,52.5992 z"
       style="fill:#000000;stroke:none" />
    <path
       style="fill:#ffffff;stroke:none"
       d="m -562.06772,945.70753 -3.77115,-41.40174 24.91927,26.84235 z"
       id="path3943"
       inkscape:connector-curvature="0"
       sodipodi:nodetypes="cccc" />
    <path
       style="fill:#ffffff;stroke:none"
       d="m -433.0858,940.17186 32.33595,-30.17133 -7.68503,44.79875 c 7.23307,-1.53415 -16.96488,-7.61627 -24.65092,-14.62742 z"
       id="path3945"
       inkscape:connector-curvature="0"
       sodipodi:nodetypes="cccc" />
    <path
       style="fill:#000000;stroke:#000000;stroke-width:0.68336421px;stroke-linecap:butt;stroke-linejoin:miter;stroke-opacity:1"
       d="m -439.63697,1198.5922 c 0,0 89.3521,297.6823 125.63587,290.4144 21.642,-4.3351 53.56512,-77.9521 53.56512,-77.9521 10.01949,8.2481 18.49361,15.1104 28.57857,23.3872 0,0 -44.98721,106.5444 -91.8693,96.654 -48.55237,-10.2428 -103.48204,-180.4012 -103.48204,-180.4012 0,0 -45.98851,109.3085 -71.96149,174.2311 -13.30556,-17.04 -17.81202,-22.7817 -26.90985,-45.2114 33.18563,-68.5195 48.0007,-104.5238 75.96094,-180.2292 0,0 -23.47749,-69.8588 -32.11804,-97.5113 11.91598,1.7406 42.60022,-3.3815 42.60022,-3.3815 z"
       id="path3947"
       inkscape:connector-curvature="0"
       sodipodi:nodetypes="csccscccccc" />
    <path
       style="fill:#000000;stroke:#000000;stroke-width:1.12063766px;stroke-linecap:butt;stroke-linejoin:miter;stroke-opacity:1"
       d="m -281.68745,1379.9134 c 29.44846,15.4084 63.48286,39.3866 88.16138,64.3847 1.08557,-43.5917 2.59604,-86.949 6.87109,-131.738 -30.10405,26.4335 -62.48952,42.1988 -95.03247,67.3533 z"
       id="path3949"
       inkscape:connector-curvature="0"
       sodipodi:nodetypes="cccc" />
    <path
       sodipodi:nodetypes="cccc"
       inkscape:connector-curvature="0"
       id="path3951"
       d="m -536.59949,1496.7011 -41.16145,47.6141 62.55707,-11.3428 c -12.04166,-10.9995 -19.20588,-23.0827 -21.39562,-36.2713 z"
       style="fill:#000000;stroke:none" />
    <path
       sodipodi:nodetypes="cccc"
       inkscape:connector-curvature="0"
       id="path3953"
       d="m -508.74724,1540.0661 -22.86637,52.1453 58.76788,-29.3991 c -16.7972,-6.9092 -25.84303,-12.1201 -35.90151,-22.7462 z"
       style="fill:#000000;stroke:none" />
    <path
       sodipodi:nodetypes="cccc"
       inkscape:connector-curvature="0"
       id="path3955"
       d="m -540.698,1491.5492 -57.20668,-5.2162 54.17417,-37.1713 c 0.51424,14.9783 0.29805,31.2056 3.03251,42.3875 z"
       style="fill:#000000;stroke:none"
       inkscape:transform-center-x="9.1923882"
       inkscape:transform-center-y="12.727922" />
    <g
       transform="matrix(1.4819571,0.01841442,-0.01841442,1.4819571,-145.0431,-228.79175)"
       id="g4205">
      <path
         style="fill:#000000;stroke:none"
         d="m 262.93851,342.42851 c 0,0 17.52241,-36.22833 56.51018,-35.88649 42.75774,0.37489 59.15129,38.15515 59.15129,38.15515 0,0 -13.59847,35.9999 -54.8425,37.53182 -52.34641,1.94431 -60.81897,-39.80048 -60.81897,-39.80048 z"
         id="path4207"
         inkscape:connector-curvature="0"
         sodipodi:nodetypes="cscsc" />
      <path
         sodipodi:nodetypes="cscsc"
         inkscape:connector-curvature="0"
         id="path4209"
         d="m 279.50523,344.94038 c 0,0 8.7915,-23.48669 39.25641,-24.10698 33.4107,-0.68027 42.86494,23.10212 42.86494,23.10212 0,0 -13.30518,25.64416 -38.40897,25.13529 -37.5398,-0.76096 -43.71238,-24.13043 -43.71238,-24.13043 z"
         style="fill:#ffffff;stroke:none" />
      <path
         style="fill:#000000;stroke:none"
         d="m 312.17914,327.1746 c 0,0 -14.76654,3.65429 -14.14662,14.88295 0.56829,10.29339 9.7404,18.49823 23.04426,19.26649 13.37466,0.77234 19.44593,-6.0495 19.06532,-20.23548 -0.4152,-15.47519 -14.42733,-15.53232 -14.42733,-15.53232 l -3.62964,21.22892 z"
         id="path4211"
         inkscape:connector-curvature="0"
         sodipodi:nodetypes="csssccc" />
    </g>
    <path
       inkscape:transform-center-y="-13.500719"
       inkscape:transform-center-x="5.6048234"
       sodipodi:nodetypes="zssz"
       inkscape:connector-curvature="0"
       id="path4213"
       d="m 301.5054,350.538 c -11.9948,-1.3058 -30.5512,9.7554 -0.4415,22.8073 16.6799,7.2303 22.7795,5.7489 23.77,-5.1671 0.9093,-10.0212 -11.3337,-16.33438 -23.3285,-17.6402 z"
       style="fill:#000000;stroke:none" />
    <path
       style="fill:#000000;stroke:none"
       d="m 365.9794,369.5103 c 9.1538,-7.4071 10.5216,-23.97192 -11.331,-18.74711 -12.1624,2.90791 -21.2776,16.62091 -14.7432,23.02351 8.2503,8.0837 16.9204,3.1307 26.0742,-4.2764 z"
       id="path4215"
       inkscape:connector-curvature="0"
       sodipodi:nodetypes="zssz" />
    <path
       style="fill:#000000;stroke:none"
       d="m 169.0692,371.5855 c -27.9461,54.0982 63.605,109.6609 156.3533,111.7038 84.6052,1.8636 195.4406,-73.0459 148.933,-132.21015 -38.7764,-49.32916 -43.2904,30.38265 -142.4266,41.85465 -53.4656,6.1871 -129.7486,-85.44514 -162.8597,-21.3483 z"
       id="path4217"
       inkscape:connector-curvature="0"
       sodipodi:nodetypes="sssss" />
    <path
       sodipodi:nodetypes="zsscz"
       inkscape:connector-curvature="0"
       id="path4219"
       d="m 192.7645,382.1247 c -20.4155,37.392 82.2461,79.8547 138.6137,76.8406 50.80324,-2.71656 144.5077,-46.9185 126.7224,-87.3318 -15.1948,-34.52685 -28.3901,39.1718 -131.6067,45.5409 C 270.0818,416.8043 213.18,344.73263 192.7645,382.1247 z"
       style="fill:#ffffff;stroke:none" />
    <path
       sodipodi:nodetypes="cccc"
       inkscape:connector-curvature="0"
       id="path4221"
       d="m 339.0213,404.3662 28.7298,35.0749 3.3629,-42.0387 z"
       style="fill:#000000;stroke:none" />
    <path
       sodipodi:nodetypes="cccc"
       inkscape:connector-curvature="0"
       id="path4223"
       d="m 391.6947,449.6485 -2.5244,-34.786 27.4664,22.688 z"
       style="fill:#000000;stroke:none" />
    <path
       sodipodi:nodetypes="cccc"
       inkscape:connector-curvature="0"
       id="path4225"
       d="m 394.0403,389.6635 29.615,24.8944 -4.5391,-43.7942 z"
       style="fill:#000000;stroke:none" />
    <path
       sodipodi:nodetypes="cccc"
       inkscape:connector-curvature="0"
       id="path4227"
       d="m 354.8323,464.2892 -21.2752,-35.8438 -13.535,35.2105 z"
       style="fill:#000000;stroke:none" />
    <path
       sodipodi:nodetypes="cccc"
       inkscape:connector-curvature="0"
       id="path4229"
       d="m 322.4162,413.007 -23.3194,31.2285 -7.8035,-44.0762 z"
       style="fill:#000000;stroke:none" />
    <path
       sodipodi:nodetypes="cccc"
       inkscape:connector-curvature="0"
       id="path4231"
       d="m 277.1477,460.8117 1.6746,-44.0796 -32.5229,30.058 z"
       style="fill:#000000;stroke:none" />
    <path
       sodipodi:nodetypes="cccc"
       inkscape:connector-curvature="0"
       id="path4233"
       d="m 266.2341,389.7819 -28.5576,32.4941 0.5457,-53.3285 z"
       style="fill:#000000;stroke:none" />
    <path
       sodipodi:nodetypes="cccc"
       inkscape:connector-curvature="0"
       id="path4235"
       d="m 216.7734,435.2558 8.9984,-42.6953 -36.2756,25.6526 z"
       style="fill:#000000;stroke:none" />
    <path
       inkscape:connector-curvature="0"
       id="path4237"
       d="m 446.7055,422.4207 -14.1194,-43.7449 36.7496,20.6335 z"
       style="fill:#000000;stroke:none" />
    <path
       sodipodi:nodetypes="czzzcczzzcc"
       inkscape:connector-curvature="0"
       id="path4239"
       d="m 247.8227,366.0186 c 0,0 -36.2129,-30.36749 -37.1196,-66.88483 -0.9067,-36.51733 32.5904,-86.8621 101.3053,-90.37979 68.7149,-3.51773 116.0076,40.5805 122.8269,83.16814 6.8192,42.58759 -28.4992,77.37988 -28.4992,77.37988 l 40.0237,-20.99384 c 0,0 19.5584,-21.51766 11.6809,-63.38061 -7.8774,-41.86297 -66.2751,-110.07758 -149.7693,-105.55948 -83.4942,4.5181 -126.4528,81.25828 -124.1503,117.50307 2.3025,36.2448 30.5282,68.25146 30.5282,68.25146 z"
       style="fill:#000000;stroke:none" />
    <path
       sodipodi:nodetypes="cccc"
       style="fill:#000000;stroke:none"
       d="m 218.3093,236.32105 0.29,-92.08506 68.1622,55.69815 z"
       id="path4241"
       inkscape:connector-curvature="0" />
    <path
       style="fill:#000000;stroke:none"
       d="m 425.0136,241.10941 8.1529,-92.80521 -64.0722,52.5992 z"
       id="path4243"
       inkscape:connector-curvature="0"
       sodipodi:nodetypes="cccc" />
    <path
       sodipodi:nodetypes="cccc"
       inkscape:connector-curvature="0"
       id="path4245"
       d="m 245.9323,237.70753 -3.7712,-41.40174 24.9193,26.84235 z"
       style="fill:#ffffff;stroke:none" />
    <path
       sodipodi:nodetypes="cccc"
       inkscape:connector-curvature="0"
       id="path4247"
       d="m 374.9142,232.17186 32.3359,-30.17133 -7.685,44.79875 c 7.2331,-1.53415 -16.9649,-7.61627 -24.6509,-14.62742 z"
       style="fill:#ffffff;stroke:none" />
    <path
       sodipodi:nodetypes="csccscccccc"
       inkscape:connector-curvature="0"
       id="path4249"
       d="m 368.363,489.17799 c 0,0 89.3521,299.09651 125.6359,291.82861 21.642,-4.3351 53.5651,-77.9521 53.5651,-77.9521 10.0195,8.2481 18.4936,15.1104 28.5786,23.3872 0,0 -44.9872,106.5444 -91.8693,96.654 -48.5524,-10.2428 -110.4821,-195.4012 -110.4821,-195.4012 0,0 -51.9885,156.8085 -63.9614,185.7311 -13.32339,-9.57985 -24.1258,-24.16345 -29.4099,-35.7114 31.72113,-80.39818 50.97253,-126.68192 71.7109,-201.4792 0,0 -15.9774,-54.1088 -24.618,-81.7613 23.916,0.9906 40.8502,-5.29571 40.8502,-5.29571 z"
       style="fill:#000000;stroke:#000000;stroke-width:0.68336421px;stroke-linecap:butt;stroke-linejoin:miter;stroke-opacity:1" />
    <path
       sodipodi:nodetypes="cccc"
       inkscape:connector-curvature="0"
       id="path4251"
       d="m 526.6826,675.7238 c 25.6869,13.4402 55.3739,34.3556 76.9002,56.1605 0.9469,-38.0235 2.2644,-75.8426 5.9934,-114.9105 -26.2587,23.057 -54.5075,36.8086 -82.8936,58.75 z"
       style="fill:#000000;stroke:#000000;stroke-width:0.97749406px;stroke-linecap:butt;stroke-linejoin:miter;stroke-opacity:1" />
    <path
       style="fill:#ffffff;stroke:none"
       d="m -187.06224,1409.1804 -41.3434,-38.9114 47.01799,12.9705 z"
       id="path4259"
       inkscape:connector-curvature="0" />
    <path
       inkscape:connector-curvature="0"
       id="path4263"
       d="m 616.88264,706.23047 -41.3434,-38.9114 47.01799,12.9705 z"
       style="fill:#ffffff;stroke:none" />
    <path
       style="fill:#000000;stroke:#000000;stroke-width:0.68336421px;stroke-linecap:butt;stroke-linejoin:miter;stroke-opacity:1"
       d="m -1345.6638,574.0308 c 0,0 89.3521,299.09651 125.6359,291.82861 21.642,-4.3351 53.5651,-77.9521 53.5651,-77.9521 10.0195,8.2481 18.4936,15.1104 28.5786,23.3872 0,0 -44.9872,106.5444 -91.8693,96.654 -48.5524,-10.2428 -110.4821,-195.4012 -110.4821,-195.4012 0,0 -51.9885,156.8085 -63.9614,185.7311 -14.7376,-9.9334 -22.4972,-17.02436 -29.4099,-35.7114 31.7211,-80.39818 50.9725,-126.68192 71.7109,-201.4792 0,0 -15.9774,-54.1088 -24.618,-81.7613 23.916,0.9906 40.8502,-5.29571 40.8502,-5.29571 z"
       id="path4265"
       inkscape:connector-curvature="0"
       sodipodi:nodetypes="csccscccccc" />
    <path
       style="fill:#000000;stroke:#000000;stroke-width:0.97749406px;stroke-linecap:butt;stroke-linejoin:miter;stroke-opacity:1"
       d="m -1187.3442,760.57661 c 25.6869,13.4402 55.3739,34.3556 76.9002,56.1605 0.9469,-38.0235 2.2644,-75.8426 5.9934,-114.9105 -26.2587,23.057 -54.5075,36.8086 -82.8936,58.75 z"
       id="path4267"
       inkscape:connector-curvature="0"
       sodipodi:nodetypes="cccc" />
    <path
       sodipodi:nodetypes="cccc"
       inkscape:connector-curvature="0"
       id="path4269"
       d="m -1443.5091,873.46011 -35.144,37.98275 53.4118,-9.0484 c -10.2813,-8.77451 -16.3982,-18.41355 -18.2678,-28.93435 z"
       style="fill:#000000;stroke:none" />
    <path
       sodipodi:nodetypes="cccc"
       inkscape:connector-curvature="0"
       id="path4271"
       d="m -1421.2869,903.9643 -13.2055,52.32143 48.8617,-36.35906 c -16.15,-3.96749 -25.0598,-7.5015 -35.6562,-15.96237 z"
       style="fill:#000000;stroke:none" />
    <path
       sodipodi:nodetypes="cccc"
       inkscape:connector-curvature="0"
       id="path4273"
       d="m -1444.9715,869.55344 -45.3028,-14.68247 49.8862,-22.52272 c -2.0694,13.04801 -4.9355,27.04656 -4.5834,37.20519 z"
       style="fill:#000000;stroke:none" />
    <path
       style="fill:#ffffff;stroke:none"
       d="m -1097.1442,791.08328 -41.3434,-38.9114 47.018,12.9705 z"
       id="path4275"
       inkscape:connector-curvature="0" />
    <path
       style="fill:#000000;stroke:none"
       d="m 271.44114,788.49181 -37.80449,50.32085 61.63355,-15.59974 c -13.01658,-12.39913 -18.74137,-19.71341 -23.82906,-34.72111 z"
       id="path4277"
       inkscape:connector-curvature="0"
       sodipodi:nodetypes="cccc" />
    <path
       style="fill:#000000;stroke:none"
       d="m 299.09611,825.28466 -15.03088,54.91881 48.03454,-35.18287 c -13.87414,-5.64008 -20.0053,-9.68748 -33.00366,-19.73594 z"
       id="path4279"
       inkscape:connector-curvature="0"
       sodipodi:nodetypes="cccc" />
    <path
       inkscape:transform-center-y="-2.962974"
       inkscape:transform-center-x="8.2052084"
       style="fill:#000000;stroke:none"
       d="m 268.67175,784.3331 -57.30283,-4.02465 50.72484,-34.91379 c 0.82581,14.96435 3.61145,27.81587 6.57799,38.93844 z"
       id="path4281"
       inkscape:connector-curvature="0"
       sodipodi:nodetypes="cccc" />
  </g>
</svg>
